<mxfile host="app.diagrams.net" modified="2020-09-04T12:21:45.060Z" agent="5.0 (Windows NT 10.0; Win64; x64) AppleWebKit/537.36 (KHTML, like Gecko) Chrome/81.0.4044.113 Safari/537.36" etag="TKF7rTPvDoeRuaXc_HQX" version="13.6.6" type="github">
  <diagram id="jh_s9WA5ICmDmVarIB02" name="第 1 页">
    <mxGraphModel dx="2489" dy="763" grid="1" gridSize="10" guides="1" tooltips="1" connect="1" arrows="1" fold="1" page="1" pageScale="1" pageWidth="827" pageHeight="1169" math="0" shadow="0">
      <root>
        <mxCell id="0" />
        <mxCell id="1" parent="0" />
        <mxCell id="rAtVhOmYT72p40duG1yd-4" value="" style="group" parent="1" vertex="1" connectable="0">
          <mxGeometry x="-100" y="320" width="250" height="180" as="geometry" />
        </mxCell>
        <mxCell id="rAtVhOmYT72p40duG1yd-5" value="" style="rounded=0;whiteSpace=wrap;html=1;" parent="rAtVhOmYT72p40duG1yd-4" vertex="1">
          <mxGeometry width="250" height="180" as="geometry" />
        </mxCell>
        <mxCell id="rAtVhOmYT72p40duG1yd-6" value="实际工厂类 1" style="text;html=1;strokeColor=none;fillColor=none;align=center;verticalAlign=middle;whiteSpace=wrap;rounded=0;" parent="rAtVhOmYT72p40duG1yd-4" vertex="1">
          <mxGeometry x="10" y="10" width="100" height="20" as="geometry" />
        </mxCell>
        <mxCell id="rAtVhOmYT72p40duG1yd-32" value="实现生产产品A1方法" style="rounded=1;whiteSpace=wrap;html=1;" parent="rAtVhOmYT72p40duG1yd-4" vertex="1">
          <mxGeometry x="15" y="70" width="120" height="30" as="geometry" />
        </mxCell>
        <mxCell id="rAtVhOmYT72p40duG1yd-33" value="实现生产产品B1方法" style="rounded=1;whiteSpace=wrap;html=1;" parent="rAtVhOmYT72p40duG1yd-4" vertex="1">
          <mxGeometry x="15" y="110" width="120" height="30" as="geometry" />
        </mxCell>
        <mxCell id="rAtVhOmYT72p40duG1yd-34" value="抽象产品A" style="shape=hexagon;perimeter=hexagonPerimeter2;whiteSpace=wrap;html=1;fixedSize=1;" parent="rAtVhOmYT72p40duG1yd-4" vertex="1">
          <mxGeometry x="145" y="70" width="90" height="30" as="geometry" />
        </mxCell>
        <mxCell id="rAtVhOmYT72p40duG1yd-35" value="抽象产品B" style="shape=hexagon;perimeter=hexagonPerimeter2;whiteSpace=wrap;html=1;fixedSize=1;" parent="rAtVhOmYT72p40duG1yd-4" vertex="1">
          <mxGeometry x="145" y="110" width="90" height="30" as="geometry" />
        </mxCell>
        <mxCell id="rAtVhOmYT72p40duG1yd-7" value="" style="group" parent="1" vertex="1" connectable="0">
          <mxGeometry x="170" y="320" width="250" height="180" as="geometry" />
        </mxCell>
        <mxCell id="rAtVhOmYT72p40duG1yd-8" value="" style="rounded=0;whiteSpace=wrap;html=1;" parent="rAtVhOmYT72p40duG1yd-7" vertex="1">
          <mxGeometry width="250" height="180" as="geometry" />
        </mxCell>
        <mxCell id="rAtVhOmYT72p40duG1yd-9" value="实际工厂类 2" style="text;html=1;strokeColor=none;fillColor=none;align=center;verticalAlign=middle;whiteSpace=wrap;rounded=0;" parent="rAtVhOmYT72p40duG1yd-7" vertex="1">
          <mxGeometry x="10" y="10" width="100" height="20" as="geometry" />
        </mxCell>
        <mxCell id="rAtVhOmYT72p40duG1yd-36" value="实现生产产品A2方法" style="rounded=1;whiteSpace=wrap;html=1;" parent="rAtVhOmYT72p40duG1yd-7" vertex="1">
          <mxGeometry x="24" y="70" width="120" height="30" as="geometry" />
        </mxCell>
        <mxCell id="rAtVhOmYT72p40duG1yd-37" value="实现生产产品B2方法" style="rounded=1;whiteSpace=wrap;html=1;" parent="rAtVhOmYT72p40duG1yd-7" vertex="1">
          <mxGeometry x="24" y="110" width="120" height="30" as="geometry" />
        </mxCell>
        <mxCell id="rAtVhOmYT72p40duG1yd-38" value="抽象产品A" style="shape=hexagon;perimeter=hexagonPerimeter2;whiteSpace=wrap;html=1;fixedSize=1;" parent="rAtVhOmYT72p40duG1yd-7" vertex="1">
          <mxGeometry x="154" y="70" width="90" height="30" as="geometry" />
        </mxCell>
        <mxCell id="rAtVhOmYT72p40duG1yd-39" value="抽象产品B" style="shape=hexagon;perimeter=hexagonPerimeter2;whiteSpace=wrap;html=1;fixedSize=1;" parent="rAtVhOmYT72p40duG1yd-7" vertex="1">
          <mxGeometry x="154" y="110" width="90" height="30" as="geometry" />
        </mxCell>
        <mxCell id="rAtVhOmYT72p40duG1yd-16" value="" style="group" parent="1" vertex="1" connectable="0">
          <mxGeometry x="-550" y="640" width="250" height="180" as="geometry" />
        </mxCell>
        <mxCell id="rAtVhOmYT72p40duG1yd-17" value="" style="rounded=0;whiteSpace=wrap;html=1;" parent="rAtVhOmYT72p40duG1yd-16" vertex="1">
          <mxGeometry width="250" height="180" as="geometry" />
        </mxCell>
        <mxCell id="rAtVhOmYT72p40duG1yd-18" value="实际产品类 A1" style="text;html=1;strokeColor=none;fillColor=none;align=center;verticalAlign=middle;whiteSpace=wrap;rounded=0;" parent="rAtVhOmYT72p40duG1yd-16" vertex="1">
          <mxGeometry x="10" y="10" width="100" height="20" as="geometry" />
        </mxCell>
        <mxCell id="rAtVhOmYT72p40duG1yd-19" value="" style="group" parent="1" vertex="1" connectable="0">
          <mxGeometry x="-280" y="640" width="250" height="180" as="geometry" />
        </mxCell>
        <mxCell id="rAtVhOmYT72p40duG1yd-20" value="" style="rounded=0;whiteSpace=wrap;html=1;" parent="rAtVhOmYT72p40duG1yd-19" vertex="1">
          <mxGeometry x="-10" width="250" height="180" as="geometry" />
        </mxCell>
        <mxCell id="rAtVhOmYT72p40duG1yd-21" value="实际产品类 A2" style="text;html=1;strokeColor=none;fillColor=none;align=center;verticalAlign=middle;whiteSpace=wrap;rounded=0;" parent="rAtVhOmYT72p40duG1yd-19" vertex="1">
          <mxGeometry x="10" y="10" width="100" height="20" as="geometry" />
        </mxCell>
        <mxCell id="rAtVhOmYT72p40duG1yd-22" value="" style="group" parent="1" vertex="1" connectable="0">
          <mxGeometry x="320" y="640" width="250" height="180" as="geometry" />
        </mxCell>
        <mxCell id="rAtVhOmYT72p40duG1yd-23" value="" style="rounded=0;whiteSpace=wrap;html=1;" parent="rAtVhOmYT72p40duG1yd-22" vertex="1">
          <mxGeometry width="250" height="180" as="geometry" />
        </mxCell>
        <mxCell id="rAtVhOmYT72p40duG1yd-24" value="实际产品类 B1" style="text;html=1;strokeColor=none;fillColor=none;align=center;verticalAlign=middle;whiteSpace=wrap;rounded=0;" parent="rAtVhOmYT72p40duG1yd-22" vertex="1">
          <mxGeometry x="10" y="10" width="100" height="20" as="geometry" />
        </mxCell>
        <mxCell id="rAtVhOmYT72p40duG1yd-25" value="" style="group" parent="1" vertex="1" connectable="0">
          <mxGeometry x="580" y="640" width="250" height="180" as="geometry" />
        </mxCell>
        <mxCell id="rAtVhOmYT72p40duG1yd-26" value="" style="rounded=0;whiteSpace=wrap;html=1;" parent="rAtVhOmYT72p40duG1yd-25" vertex="1">
          <mxGeometry width="250" height="180" as="geometry" />
        </mxCell>
        <mxCell id="rAtVhOmYT72p40duG1yd-27" value="实际产品类 B2" style="text;html=1;strokeColor=none;fillColor=none;align=center;verticalAlign=middle;whiteSpace=wrap;rounded=0;" parent="rAtVhOmYT72p40duG1yd-25" vertex="1">
          <mxGeometry x="10" y="10" width="100" height="20" as="geometry" />
        </mxCell>
        <mxCell id="W7easzAoIa7uQQwCpiiC-5" value="" style="group" vertex="1" connectable="0" parent="1">
          <mxGeometry x="-420" y="845" width="250" height="80" as="geometry" />
        </mxCell>
        <mxCell id="W7easzAoIa7uQQwCpiiC-3" value="" style="shape=card;whiteSpace=wrap;html=1;" vertex="1" parent="W7easzAoIa7uQQwCpiiC-5">
          <mxGeometry width="250" height="80" as="geometry" />
        </mxCell>
        <mxCell id="rAtVhOmYT72p40duG1yd-12" value="抽象产品接口 A" style="text;html=1;strokeColor=none;fillColor=none;align=center;verticalAlign=middle;whiteSpace=wrap;rounded=0;" parent="W7easzAoIa7uQQwCpiiC-5" vertex="1">
          <mxGeometry x="20" y="20.000810810810812" width="100" height="8.64864864864865" as="geometry" />
        </mxCell>
        <mxCell id="W7easzAoIa7uQQwCpiiC-6" value="" style="group" vertex="1" connectable="0" parent="1">
          <mxGeometry x="320" y="840" width="250" height="90" as="geometry" />
        </mxCell>
        <mxCell id="W7easzAoIa7uQQwCpiiC-4" value="" style="shape=card;whiteSpace=wrap;html=1;" vertex="1" parent="W7easzAoIa7uQQwCpiiC-6">
          <mxGeometry width="250" height="90" as="geometry" />
        </mxCell>
        <mxCell id="rAtVhOmYT72p40duG1yd-15" value="抽象产品类 B" style="text;html=1;strokeColor=none;fillColor=none;align=center;verticalAlign=middle;whiteSpace=wrap;rounded=0;" parent="W7easzAoIa7uQQwCpiiC-6" vertex="1">
          <mxGeometry x="30" y="12.162162162162163" width="100" height="9.72972972972973" as="geometry" />
        </mxCell>
        <mxCell id="W7easzAoIa7uQQwCpiiC-8" value="" style="group" vertex="1" connectable="0" parent="1">
          <mxGeometry x="30" y="120" width="260" height="190" as="geometry" />
        </mxCell>
        <mxCell id="W7easzAoIa7uQQwCpiiC-1" value="" style="shape=card;whiteSpace=wrap;html=1;" vertex="1" parent="W7easzAoIa7uQQwCpiiC-8">
          <mxGeometry width="260" height="190" as="geometry" />
        </mxCell>
        <mxCell id="rAtVhOmYT72p40duG1yd-29" value="定义生产产品B方法" style="rounded=1;whiteSpace=wrap;html=1;" parent="W7easzAoIa7uQQwCpiiC-8" vertex="1">
          <mxGeometry x="20" y="140" width="120" height="30" as="geometry" />
        </mxCell>
        <mxCell id="rAtVhOmYT72p40duG1yd-28" value="定义生产产品A方法" style="rounded=1;whiteSpace=wrap;html=1;" parent="W7easzAoIa7uQQwCpiiC-8" vertex="1">
          <mxGeometry x="20" y="70" width="120" height="30" as="geometry" />
        </mxCell>
        <mxCell id="rAtVhOmYT72p40duG1yd-30" value="抽象产品A" style="shape=hexagon;perimeter=hexagonPerimeter2;whiteSpace=wrap;html=1;fixedSize=1;" parent="W7easzAoIa7uQQwCpiiC-8" vertex="1">
          <mxGeometry x="150" y="70" width="90" height="30" as="geometry" />
        </mxCell>
        <mxCell id="rAtVhOmYT72p40duG1yd-31" value="抽象产品B" style="shape=hexagon;perimeter=hexagonPerimeter2;whiteSpace=wrap;html=1;fixedSize=1;" parent="W7easzAoIa7uQQwCpiiC-8" vertex="1">
          <mxGeometry x="150" y="140" width="90" height="30" as="geometry" />
        </mxCell>
        <mxCell id="rAtVhOmYT72p40duG1yd-2" value="抽象从工厂接口" style="text;html=1;strokeColor=none;fillColor=none;align=center;verticalAlign=middle;whiteSpace=wrap;rounded=0;" parent="W7easzAoIa7uQQwCpiiC-8" vertex="1">
          <mxGeometry x="20" y="20" width="100" height="20" as="geometry" />
        </mxCell>
      </root>
    </mxGraphModel>
  </diagram>
</mxfile>
